<svg width="164" height="179" viewBox="0 0 164 179" fill="none" xmlns="http://www.w3.org/2000/svg">
<path d="M153.828 77.0256L112.159 59.0908L102.879 55.1648C101.452 54.451 100.202 52.5772 100.202 50.9711V23.6676C100.202 15.1017 93.8673 4.92981 86.1937 1.00381C83.5169 -0.334603 80.3047 -0.334603 77.6279 1.00381C70.0436 4.92981 63.7083 15.191 63.7083 23.7568V51.0604C63.7083 52.6664 62.4592 54.5402 61.0315 55.254L10.1719 77.1148C4.5506 79.4348 0 86.4837 0 92.5512V104.329C0 111.914 5.71055 115.661 12.7595 112.627L57.4624 93.3542C60.9423 91.8374 63.7976 93.7111 63.7976 97.5479V107.452V123.513C63.7976 125.565 62.6376 128.51 61.21 129.937L40.5092 150.727C38.3678 152.869 37.3863 157.063 38.3678 160.096L42.383 172.231C43.9891 177.496 49.9673 179.994 54.8748 177.496L76.111 159.65C79.3232 156.884 84.5876 156.884 87.7998 159.65L109.036 177.496C113.943 179.905 119.922 177.496 121.706 172.231L125.721 160.096C126.703 157.152 125.721 152.869 123.58 150.727L102.879 129.937C101.362 128.51 100.202 125.565 100.202 123.513V97.5479C100.202 93.7111 102.968 91.9266 106.538 93.3542L151.24 112.627C158.289 115.661 164 111.914 164 104.329V92.5512C164 86.4837 159.449 79.4347 153.828 77.0256Z" fill="#F9F9F9"/>
</svg>
