<svg width="39" height="37" viewBox="0 0 39 37" fill="none" xmlns="http://www.w3.org/2000/svg">
<path d="M38.1528 8.53902C37.8093 7.944 37.3176 7.44815 36.7254 7.09982C36.1333 6.75149 35.4609 6.56259 34.774 6.55153H9.33415L8.18141 2.0598C8.06494 1.6262 7.8051 1.24482 7.4442 0.977754C7.0833 0.71069 6.64262 0.573687 6.19392 0.589056H2.21894C1.69182 0.589056 1.18629 0.798452 0.813568 1.17118C0.440841 1.54391 0.231445 2.04943 0.231445 2.57655C0.231445 3.10366 0.440841 3.60919 0.813568 3.98191C1.18629 4.35464 1.69182 4.56404 2.21894 4.56404H4.68342L10.1689 24.9557C10.2854 25.3893 10.5452 25.7707 10.9061 26.0377C11.267 26.3048 11.7077 26.4418 12.1564 26.4264H30.0438C30.4108 26.4253 30.7704 26.3226 31.0826 26.1297C31.3948 25.9367 31.6475 25.6611 31.8127 25.3333L38.3316 12.2954C38.6142 11.7031 38.7457 11.0502 38.7145 10.3947C38.6833 9.73926 38.4903 9.10173 38.1528 8.53902Z" fill="#E87AA1"/>
<path d="M11.1626 36.3638C12.8091 36.3638 14.1439 35.0291 14.1439 33.3826C14.1439 31.7361 12.8091 30.4014 11.1626 30.4014C9.51614 30.4014 8.1814 31.7361 8.1814 33.3826C8.1814 35.0291 9.51614 36.3638 11.1626 36.3638Z" fill="#E87AA1"/>
<path d="M31.0376 36.3638C32.6841 36.3638 34.0189 35.0291 34.0189 33.3826C34.0189 31.7361 32.6841 30.4014 31.0376 30.4014C29.3911 30.4014 28.0564 31.7361 28.0564 33.3826C28.0564 35.0291 29.3911 36.3638 31.0376 36.3638Z" fill="#E87AA1"/>
</svg>
